<svg xmlns="http://www.w3.org/2000/svg" xml:space="preserve" viewBox="0 0 214.92 90.51"><path d="M148.32 50.47c1.47.27 1.93.37 1.93 2.05v5.59c0 1.79-.26 1.88-2.02 2.09v.78h6.39v-.78c-1.35-.16-1.58-.27-1.58-2.03v-6.43c.63-.58 1.42-.97 2.27-1.11 1.29 0 2.42.68 2.42 2.75V58c0 1.89-.17 2.04-1.54 2.21v.78h6.11v-.79c-1.49-.19-1.77-.27-1.77-2.03V53c0-2.66-1.32-4.25-3.49-4.25-.62-.01-1.23.16-1.75.5l-2.24 1.54v-2.08c-1.55.45-3.13.8-4.72 1.04zm-12.5 9.06-.8-.08c-1.07-.13-1.36-.24-1.36-1.71V42.6c-1.62.44-3.27.75-4.94.94v.76c1.81.15 2.15.28 2.15 1.9v2.86a9.5 9.5 0 00-1.76-.22 6.42 6.42 0 00-6.87 6.69c-.25 2.86 1.86 5.39 4.72 5.64.09.01.19.01.28.02.69.05 1.38-.11 1.98-.46l1.64-1.02v1.62c1.02-.3 3.49-.82 4.96-1.05zm-4.96-.72c-.6.44-1.32.68-2.06.7-1.5 0-3.44-1.42-3.44-4.69 0-4.02 2.17-4.87 3.11-4.87.96-.11 1.9.35 2.39 1.18zm-30.42-2.58c-.3.98-.83 1.87-1.55 2.59a3.88 3.88 0 01-2.79 1c-.72.06-1.45-.04-2.14-.29-.53-.25-.64-.77-.64-2.13v-9.31c0-2.32.3-2.46 2.42-2.64v-.9h-7.8v.9c2.16.18 2.43.34 2.43 2.64v9.34c0 2.3-.36 2.47-2.69 2.65v.9h12.69c.25-.77.8-3.53 1-4.54zm45.95-2.01c.36.04.69-.21.73-.57.01-.06.01-.11 0-.17a4.34 4.34 0 00-4.08-4.58 5 5 0 00-.56 0 5.3 5.3 0 00-3.93 1.71 7.18 7.18 0 00-1.96 4.93 5.533 5.533 0 005.27 5.78q.195.015.39 0a6.29 6.29 0 004.75-2.79l-.45-.63c-.84.8-1.96 1.26-3.12 1.27-1.96 0-3.95-1.13-3.95-4.71zm-6.83-.91c.18-1.98 1.22-3.52 2.6-3.52 1.32 0 2.05 1.38 2.04 2.94 0 .42-.17.58-.62.58zm-27.13.91a.67.67 0 00.74-.75c.14-2.39-1.69-4.45-4.08-4.58a5 5 0 00-.56 0 5.3 5.3 0 00-3.93 1.71 7.13 7.13 0 00-1.96 4.93c-.14 3.05 2.22 5.64 5.26 5.78q.195.015.39 0a6.29 6.29 0 004.75-2.79l-.45-.63c-.84.8-1.96 1.26-3.12 1.27-1.96 0-3.95-1.13-3.95-4.71zm-6.83-.91c.17-1.98 1.22-3.52 2.6-3.52 1.32 0 2.05 1.38 2.04 2.94 0 .42-.16.58-.62.58zm15.67 7.68v-.79c-1.7-.18-1.97-.34-1.97-2.18v-9.27q-2.34.66-4.74 1.02v.72c1.47.22 1.94.34 1.94 2.05v5.47c0 1.88-.29 2.02-1.94 2.18v.78zm-3.56-14.26c.91.01 1.65-.72 1.65-1.63s-.72-1.65-1.63-1.65-1.65.72-1.65 1.63v.03c.02.89.74 1.61 1.63 1.62M105.1 23.42c1.47.27 1.99.37 1.99 2.05v5.59c0 1.78-.32 1.88-2.09 2.09v.78h6.51v-.78c-1.35-.16-1.63-.27-1.63-2.03v-6.44c.63-.58 1.42-.96 2.26-1.11 1.3 0 2.42.68 2.42 2.75v4.62c0 1.89-.16 2.04-1.54 2.21v.78h6.16v-.78c-1.49-.19-1.83-.27-1.83-2.03v-5.18c0-2.66-1.24-4.25-3.41-4.25-.62-.01-1.24.16-1.76.5l-2.3 1.54v-2.08c-1.57.45-3.17.8-4.78 1.05zm29.56 10.51c1.35-4.01 2.14-6.62 3.15-9.36.47-1.26.71-1.45 2.03-1.6v-.79h-5.18l.01.79c.33.03.65.08.97.16.6.18.7.57.46 1.34l-2.31 7.8h-.1l-2.16-7.76c-.21-.82-.13-1.16.17-1.31.36-.15.74-.22 1.13-.23v-.79h-6.33v.79c1.54.16 1.36.31 1.94 1.71l3.08 9.25zm46.14-13.84v2.09h-1.47l-.51.94v.3h1.98v7.46c-.2 1.63.97 3.11 2.6 3.31.22.03.43.03.65.01.3.01.59-.06.86-.2.83-.38 1.64-.82 2.42-1.3l-.33-.68c-.54.27-1.13.44-1.74.49-.62 0-1.56-.39-1.56-2.53v-6.56h2.98c.25-.36.37-.8.33-1.24h-3.31v-3.62l-.38-.11c-.78.63-1.62 1.18-2.52 1.64m27.59 0v2.09h-1.47l-.51.94v.3h1.98v7.46c-.2 1.63.97 3.12 2.6 3.31.22.03.43.03.65.01.3.01.59-.05.85-.2.83-.38 1.64-.82 2.42-1.3l-.33-.68c-.54.27-1.13.44-1.74.49-.61 0-1.56-.39-1.56-2.53v-6.56h2.98c.25-.36.37-.8.33-1.24h-3.3v-3.62l-.38-.11c-.78.63-1.62 1.18-2.52 1.64m-2.35 13.84v-.78c-1.7-.18-1.97-.34-1.97-2.18V21.7q-2.34.66-4.74 1.02v.72c1.48.23 1.95.34 1.95 2.06v5.47c0 1.88-.3 2.02-1.94 2.18v.78zm-3.55-14.25c.9 0 1.64-.72 1.65-1.62.02-.9-.69-1.64-1.59-1.66h-.03c-.91-.01-1.65.71-1.66 1.62s.71 1.65 1.62 1.66zm-24.04 14.25v-.78c-1.7-.18-1.97-.34-1.97-2.18V21.7q-2.34.66-4.74 1.02v.72c1.48.23 1.95.34 1.95 2.06v5.47c0 1.88-.29 2.02-1.94 2.18v.78zm-3.55-14.25c.9 0 1.64-.72 1.65-1.62.02-.9-.69-1.64-1.59-1.66h-.03c-.91-.01-1.65.71-1.66 1.62s.71 1.65 1.62 1.66zm-5.01 5.51c-.09-1.01-.28-2.02-.56-3-.84-.33-1.74-.49-2.64-.47-2.74-.01-4.45 1.66-4.45 3.66 0 2.2 2.03 3.18 3.51 3.86 1.56.72 2.15 1.37 2.15 2.35 0 .93-.75 1.69-1.69 1.7h-.08c-1.67 0-2.93-1.71-3.5-3.46l-.76.09c0 1.16.16 2.31.45 3.43 1 .61 2.16.93 3.33.91 2.29 0 4.77-1.28 4.77-3.85 0-1.99-1.45-2.95-3.62-3.85-1.33-.55-2.21-1.2-2.21-2.21a1.6 1.6 0 011.53-1.67h.08c1.51 0 2.27 1.1 2.9 2.72zm-13.84-.49v-3.03c-1.41.51-2.88.87-4.37 1.06v.68c1.42.25 1.64.36 1.64 1.96v5.75c0 1.72-.3 1.86-1.87 2.03v.78h6.96v-.78c-2.09-.16-2.29-.31-2.29-2.03v-4.99c.53-1.31 1.27-1.87 1.9-1.87.54.07 1.04.3 1.44.66.17.15.42.16.6.02.63-.46 1.02-1.17 1.07-1.95 0-.77-.74-1.32-1.7-1.32-1.18 0-2.41 1.48-3.31 3.02zm41.37 2.46a.662.662 0 00.74-.74 4.34 4.34 0 00-4.08-4.58 5 5 0 00-.56 0 5.3 5.3 0 00-3.93 1.71 7.18 7.18 0 00-1.96 4.93 5.52 5.52 0 005.26 5.77q.195.015.39 0a6.29 6.29 0 004.75-2.79l-.45-.63c-.84.8-1.96 1.26-3.12 1.27-1.96 0-3.95-1.13-3.95-4.71zm-6.82-.9c.17-1.98 1.22-3.52 2.6-3.52 1.32 0 2.04 1.39 2.04 2.94 0 .43-.17.58-.62.58zm-41.07.9a.67.67 0 00.74-.75 4.34 4.34 0 00-4.08-4.58 5 5 0 00-.56 0 5.3 5.3 0 00-3.93 1.71 7.18 7.18 0 00-1.96 4.93 5.524 5.524 0 005.27 5.77q.195.015.39 0a6.29 6.29 0 004.75-2.79l-.45-.63c-.84.8-1.96 1.26-3.12 1.27-1.96 0-3.95-1.13-3.95-4.71zm-6.82-.9c.18-1.98 1.22-3.52 2.6-3.52 1.32 0 2.05 1.39 2.04 2.94 0 .43-.17.58-.62.58zm-16.02 7.67v-.78c-1.7-.18-2.04-.34-2.04-2.18V21.7q-2.37.66-4.8 1.02v.72c1.47.23 2.01.34 2.01 2.06v5.47c0 1.88-.36 2.02-2.01 2.18v.78zm-3.61-14.25c.9 0 1.64-.72 1.65-1.62.02-.9-.69-1.64-1.59-1.66h-.03c-.91-.01-1.65.71-1.66 1.62s.71 1.65 1.62 1.66zm-17.77-1.28c-1.57.11-2.26.57-2.39 1.6-.16 1.35-.22 2.72-.2 4.08v1.36c0 3.04-.5 5.34-2.06 6.95a6.6 6.6 0 01-4.99 1.93c-1.62.07-3.23-.4-4.56-1.34-1.59-1.22-2.33-3.24-2.33-6.4v-5.42c0-2.47-.25-2.56-2.33-2.75v-.9h7.59v.9c-2.07.15-2.3.27-2.3 2.75v4.87c0 4.22 1.59 6.65 4.78 6.65 3.58 0 4.82-2.86 4.82-7.37v-1.22c.03-1.37-.06-2.73-.26-4.08-.15-.99-.75-1.45-2.63-1.59v-.9h6.86zM66.49 38.2h-7.6v4.45H61l.1-.1c-.18-.08-.34-.19-.47-.33.27 0 .53-.08.74-.23a.26.26 0 00-.12-.15c-.48-.34-.93-.73-1.33-1.16-.5.05-.56-.24-.56-.24.14.04.43.01.43-.09 0-.11-.42-.29-.42-.29.1-.09.48.02.48.02-.07-.14-.15-.27-.25-.39.21 0 .45.26.45.26.06-.14-.07-.44-.07-.44.27.18.4.5.34.81l1.07.78c.31.16.58.25.65-.18a.84.84 0 01-.47-.29c.15-.01.3-.06.43-.14.22-.14 0-.68.29-.74l1.19.25c.02.25-.01.5-.11.73 0 0 .04.4.22.47 0 0-.4.07-.47-.04l-.07.16c0 .33.18.62.47.77.41.19.8.44 1.13.74.21.03.43-.02.6-.15.1-.13.12-.31.06-.46-.14-.34-.33-.65-.57-.94-.07-.1-.14-.19-.19-.26-.02-.03-.45-.66-.19-1.06.17-.26.5-.37.78-.24.25-.29.67-.19.84.27.2.52-.32.59-.01 1.38-.61-.13-1-.72-.87-1.33.01-.03.01-.06.02-.09-.08-.01-.17-.02-.25-.02-.12 0-.23.06-.3.16-.12.2.05.59.18.79.05.07.11.16.19.26.26.3.47.65.61 1.02.08.24.04.5-.12.69-.19.17-.44.25-.69.23.05.11.05.19.09.29.04.12.12.22.22.29-.34.28-.22.54-.06.69.2.18.46-.05.46-.05.21 1.2-1.43 1.8-1.38 1.87.05.08.11.06.19.2.08.11.06.25-.05.33a.2.2 0 01-.11.04c.02-.21-.07-.37-.18-.38s-.33.4-.33.4c-.08-.12.09-.46.09-.46-.12-.05-.44.37-.44.37-.07-.18.15-.44.15-.44-.19-.06-.48.28-.48.28-.01-.61.48-.63.73-.64.94-.02.65-1 .65-1-.46.38-.79.22-.79.22.21-.1.33-.33.3-.56-.08-.81-.1-.91-.05-.99.07-.09-.1-.05-.1-.05-.12.41-.92.98-.92.98.13.04.26.09.38.15-.07.17-.21.31-.38.37v2.22h3.73V38.2zm0 9.34h-3.73v.57c0 .36-.05.73-.15 1.07.24.02.47.01.71-.03 0 0 .56-.03.86-.01.13.01.25.03.38.07.27-.06.79-.22.9-.42.02-.04.09-.1.07-.15 0-.01-.01-.17-.05-.18a1.1 1.1 0 00-.73.14c-.27.19-.63.22-.93.08-.1-.07-.11-.21-.04-.42 0 0 .03-.26.46-.26.15-.01.17.18.04.27-.09.07-.3.18-.39.13-.02.09-.01.15.02.17.25.13.55.1.77-.08.25-.15.55-.21.84-.16.08.05.15.12.18.2.04.08-.09.24-.13.32-.12.22-.55.37-.83.45q.105.06.15.18c.03.07.06.14.07.22.07.36.54.18.54.18-.04.27-.1.54-.2.79-.05.15-.36.07-.49.07-.16 0 0-.09.05-.13.06-.04.25.04.25.04l.11-.47c-.36.04-.7-.15-.86-.47-.27.38-.6.71-.97.98a.33.33 0 01-.38 0c-.07-.08.11-.09.11-.09.36-.13.9-.92.9-.92s.11-.27-.65.09c-.35.19-.74.29-1.13.28l-.04.07a4.06 4.06 0 01-3.32 2.01v4.46c1.55-.04 3.05-.54 4.31-1.43a7.73 7.73 0 003.28-6.33v-1.29zm-1.67 14.51c0-.52-.57-1.05-1.52-1.4h-9.45c-.95.35-1.52.88-1.52 1.4 0 .06.01.12.02.17H64.8c.01-.06.02-.11.02-.17m-12.48-8.71c.55.76 1.22 1.41 2 1.93l-.01 5.08h8.32l.01-3.86c-2.22.9-4.72.74-6.8-.45.88.34 1.81.52 2.75.53v-3.25zm-1.46-4.52c0 .45.04.89.12 1.33h4.24a4 4 0 01-.57-2.05v-.57h-3.79zm-.6-13.6c.52.59.74 1.38.61 2.15-.02.55-.01.74-.01.81v9.08h3.79v-2.09c-.33.1-.67.16-1.02.2-.31.09-.11.61-.11.61-.3-.05-.27-.37-.27-.37-.35-.01-.29.45-.29.45-.29-.12-.03-.44-.11-.47-.16-.07-.4.24-.4.24-.02-.22.07-.44.23-.59-.12-.08-.3.03-.3.03.17-.51.57-.23.67-.15.08.06.14.12.25.02.25-.19.52-.36.81-.49-.3.05-.47-.34-.47-.34.36 0 .4-.1.47-.21.14-.23.32-.43.53-.59v-.58q-.285-.12-.57-.27c-.32.38-.7.7-1.12.97-.09.02-.16.1-.15.2 0 .3-.15.39-.15.39a.25.25 0 00-.21-.29h-.03c-.25-.01-.3.35-.3.35-.25-.11-.04-.52-.04-.52-.16.03-.32.1-.45.2-.11-.28.34-.44.34-.44-.14-.04-.29-.06-.44-.05a.454.454 0 01.75-.1c.04.08.1.2.2.05.12-.18.84-.87.97-1-.1-.04-.47.04-.67-.17.27 0 .53-.08.74-.23a.26.26 0 00-.12-.15c-.48-.34-.93-.73-1.33-1.16-.49.05-.56-.25-.56-.25.14.04.43.01.43-.08 0-.11-.42-.3-.42-.3.1-.08.48.02.48.02.01-.06-.25-.39-.25-.39.21 0 .45.26.45.26.06-.14-.07-.44-.07-.44.44.22.34.81.34.81l1.35.95c.29.19.68.14.9-.12.11-.09.12-.25.03-.36a.22.22 0 00-.13-.08c-.04-.01-.22.03-.27-.04-.06-.1-.03-.24.04-.27.15-.01.31-.01.46.01.07-.01.12-.13.02-.16-.4-.18-.56-.23-.57-.3-.01-.14-.04-.26.04-.26.19-.01.22-.04.22-.04.19-.24.31-.24.38-.26.21.01.41.06.61.13.06.01.14.03.17-.01.15-.14.38-.14.53.01-.12-.01-.31.14-.25.18.15.11-.04.51-.08.63-.12.36.25.71.25.71-.2.11-.44.08-.62-.06 0 .63.96.66.96.66-.2.36-.81.27-.93.25-.14-.03-.12.16.07.22.32.13.62.31.88.53h.89c.06-.13.06-.27.02-.4-.14-.34-.33-.66-.57-.94-.07-.1-.14-.18-.19-.26-.02-.03-.45-.66-.19-1.05.16-.27.5-.37.78-.25.25-.29.67-.19.85.27.2.52-.33.59-.02 1.38-.61-.13-1-.72-.87-1.33.01-.03.01-.06.02-.09-.08-.01-.17-.02-.25-.02-.12 0-.23.06-.3.16-.12.2.05.59.18.79.05.07.12.16.19.26.26.3.47.65.61 1.02.04.15.04.31 0 .46h.85V38.2h-7.37l-.1-.03c0-.11 0-.27.01-.63.13-1.62-.42-2.15-.8-2.32m-.97-1.44c.25-.25.61-.36.96-.31-.02-.02-.03-.05-.05-.07a.91.91 0 00-1.28 0 .9.9 0 00-.01 1.27l.01.01c.02.02.04.04.07.05-.06-.35.05-.7.3-.95m1.59.34a.9.9 0 000 1.27c.02.02.05.04.07.06a1.098 1.098 0 011.26-1.26c-.02-.02-.03-.05-.06-.07a.9.9 0 00-1.27 0m3.15 1.07c-.13.76-.82 1.3-1.59 1.23-.23-.01-.45-.07-.65-.17.26.21.58.33.91.34.86.05 1.59-.61 1.64-1.47v-.01l-.27-.17c-.01.08-.02.17-.04.25m2.85 13.3c-.22.03-.41.11-.41.39v.8c0 .55.22.85.73.85.52 0 .77-.31.78-.89v-.08c-.5-.2-.9-.58-1.1-1.07m-1.94-.95v.57a3.747 3.747 0 003.65 3.73v-2.15a3 3 0 01-.4-.06v.16-.13c.03.31-.09.61-.31.82-.23.18-.51.27-.8.26-.27.01-.53-.05-.77-.18a.84.84 0 01-.32-.8v-.87c0-.37-.28-.39-.63-.41v-.16h1.45a1.9 1.9 0 01-.09-.58v-.19zm3.16-2.45h.49v-2.16h-2.24zm-3.16-.78v2.93h1.78v-.74zm-.11-4.59c0 .01-.01.01-.01.02 0 .06.04.12.11.12.06-.01.11-.06.11-.12 0-.01-.01-.02-.01-.03l.16-.01c.03 0 .05 0 .06-.03 0-.03-.02-.04-.05-.04l-.25-.01-.12-.01c-.03 0-.05.02-.05.05s.02.05.04.06zm4.47 6.73h1.08v-1.07h-1.08zm-1.22 0v1.21h-1.08v.07c0 .69.43 1.31 1.08 1.56v-1.63h1.22v1.63c.59-.23 1.01-.77 1.06-1.41.01-.05.01-.1.01-.16v-.07h-1.07v-1.21zm0-1.07h-1.08v1.07h1.08zm1.16 4.23c-.12.03-.24.06-.37.06v2.16c.62-.03 1.22-.21 1.75-.53zm2.76.28c.3-.54.46-1.16.45-1.78v-.57h-1.78v.19c0 .15-.02.3-.05.45zm1.09-6.81c-.12-.01-.23-.04-.35-.06v.29c.09-.04.18-.07.27-.08.2-.01.08-.15.08-.15m-.26-2.79c0 .01.01.01.02.02-.01.01-.02.01-.02.02-.01.05.05.11.13.13s.16-.02.17-.07a.1.1 0 00-.03-.07h.17c.02 0 .04-.02.04-.05s-.02-.04-.04-.04l-.4.01c-.02.01-.04.03-.04.05m-.18.43a.36.36 0 00-.4.22c.56-.23.62.2.62.2.01-.09.16-.34-.22-.42m.09-.43c0-.01-.01-.02-.01-.03.01 0 .01 0 .02-.01.01-.02 0-.05-.02-.06l-.36-.17c-.02-.01-.05 0-.06.02s0 .04.02.05l.16.07a.12.12 0 00-.05.05c-.01.06.05.11.12.13.09.04.17.01.18-.05m-3.86 4.8h.9v-.67c0-.37-.29-.39-.63-.41v-.16h1.77v.16c-.32.02-.66.04-.66.41v.67h.41v.93c.1.04.21.06.32.06.51 0 .77-.31.78-.9 0-.18-.01-.36-.04-.54h.29a3.2 3.2 0 00-.04.69v-.13c.03.31-.09.61-.31.83-.28.22-.64.3-.99.24v.99h1.78v-4.31H58.9zm5.75-8.67c-.27.02-.54-.02-.78-.13.3.23.67.34 1.05.3.61-.05 1.16-.41 1.45-.95l-.27-.17c-.29.54-.84.9-1.45.95m.26-2.31c-.35.35-.35.92 0 1.28.02.02.05.03.07.05-.06-.35.06-.71.31-.96s.61-.37.96-.31l-.06-.06a.894.894 0 00-1.28 0M44.62 11.54c.02-.68-.04-1.58-1.36-1.58.37 0-.95-.09-.95.54.03.55-.4 1.03-.95 1.06h-.11c.01 0-1.54-.46-.74-.76.6-.23.91-.91.67-1.52-.01-.03-.02-.05-.03-.08a1.14 1.14 0 00-1.81-.17c-.17.17-.06.68-.38.68-.41 0-.4-.39-.4-.63 0-.28-.13-.69-.84-.69a.79.79 0 00-.89.67c0 .02 0 .03-.01.05a.6.6 0 00.36.66c.25.14.12.66-.32.36-.14-.09-1.67-1.49-3.12-.56-.66.43-.63 1-.2 1.28.18.11.23.31.01.45-.45.58-.36 1.42.21 1.88.52.48 1.33.44 1.81-.08.07-.08.13-.16.18-.26.16-.46.22-.95.17-1.44-.01-.18.13-.76.95-.61.37.07.42.32.21.52-.79.61-1.25 1.56-1.24 2.56 0 .5-.28.95-.72 1.19-.34.23-1.26.8-.44 1.71.46.51.55.66-.49 1.64-.17.16-.58.38.16.45 1 .02 2.01-.04 3-.17l-.21-.39c-.77.1-1.55.12-2.32.07.79-.39 1.11-1.34.72-2.13a1 1 0 00-.07-.12c-.4-.51-.05-.92.72-1.01a2.62 2.62 0 011.8.26s-1.13-.13-1.57.23l.02.1c.01.05.04.17.07.3.42-.12.85-.21 1.28-.26.07.04.09.12.06.19-.04.07-.12.09-.19.06-.1.04-.22.05-.33.04.01.02.19.11.2.14.04.14-.05.28-.19.32s-.28-.05-.32-.19c-.02-.08 0-.16.04-.22-.17.02-.34.05-.51.1.01.03.01.07.03.1l.06.15c.1.19.16.41.17.63.01.12.04.23.08.34.03.06.07.14.11.23.28.64.69 1.59 1.91 1.29.07-.02.14.02.16.09.01.07-.03.13-.09.15-.06.03-.17.07-.23.09-.21.1-.45.12-.68.06.05.18.09.34.09.34s-.45.07-.63.11c-.03.09-.04.03-.04.12 0 .75.97 1.36 2.17 1.36s2.17-.61 2.17-1.36c0-.06-.01-.12-.02-.18l-.01-.01c-.07-.1-.14-.21-.2-.3-.55-.92-.45-1.17-.45-1.17.06-.13-.02-.13.07-.14.95-.05 1.9-.16 2.84-.34.2-.04.45-.23.22-.37-.19-.11-1.79-.28-1.78-1.23 0-.72.22-1.65-1.17-2.07-.11-.03-.13-.09-.11-.24.01-.49-.14-.96-.43-1.35-.23-.26-.56-.57-.53-.68l.2-.06c.36.18.67.46.87.8.21.38.55.7 1.7.7.88-.06 1.59-.8 1.59-1.7m-17.31 22.6a.91.91 0 00-1.28 0c-.02.02-.04.05-.06.07a1.1 1.1 0 011.27 1.26c.02-.02.05-.03.07-.06.36-.35.36-.92 0-1.27q.015 0 0 0m.86 1.07c-.39.17-.93.7-.88 2.32.01.39.01.55.01.66H11.97v10.63a7.804 7.804 0 007.83 7.77c.96 0 1.91-.19 2.81-.54a7.82 7.82 0 01-6.77.46v3.84h7.9v-4.84a7.76 7.76 0 003.85-6.69V38.2h-.01q.03-.42 0-.84c-.15-.77.07-1.56.59-2.15m-.19-1.77c-.02.02-.04.04-.06.07a1.1 1.1 0 011.27 1.26c.02-.02.05-.04.07-.06.35-.36.35-.93-.01-1.28a.89.89 0 00-1.27.01M25.8 62.05c-.07-.47-.37-.87-.8-1.06-.23-.14-.47-.25-.72-.34h.03c-.02 0-.03 0-.05-.01l.02.01h-9.44l.02-.01c-.02.01-.03.01-.05.01h.03c-.25.09-.5.21-.73.35-.43.19-.73.59-.8 1.06 0 .06.01.11.02.17h12.45c.01-.07.02-.13.02-.18M11.86 35.66c.29.54.83.9 1.45.95.38.04.75-.07 1.05-.31-.24.11-.51.16-.78.14-.61-.05-1.16-.4-1.45-.95zm-.52-.96c.35-.35.35-.93 0-1.28a.91.91 0 00-1.28 0 .2.2 0 00-.05.07c.35-.06.71.06.96.31s.37.61.31.95c.01-.02.03-.04.06-.05m.7-.58c-.02.02-.04.04-.06.07a1.1 1.1 0 011.27 1.26c.02-.02.05-.04.07-.06.35-.35.35-.91.01-1.27l-.01-.01a.92.92 0 00-1.28.01m11.83 1c.04.86.77 1.52 1.62 1.49h.01c.33-.02.65-.14.91-.34-.2.1-.42.16-.65.17-.77.07-1.47-.46-1.59-1.23-.02-.09-.04-.17-.05-.26zm38.84-15.04a41.8 41.8 0 018.12 25.17c.01 5.22-.91 10.4-2.72 15.29-.06.15-.12.31-.18.46l-3.41.01c.34.24.56.62.59 1.04 0 .74-.5.74-1.42.75H53.6c-.62.01-1.12.01-1.38-.25a.68.68 0 01-.18-.51c.03-.43.25-.82.6-1.06h-6.36c.5-.76.89-1.59 1.14-2.46 1.31-4.46 1.19-9.37 1.25-13.32.03-2.34.04-2.14-.07-4.36 0 0 .45-.16.16-1.06-.15-.46-.45-.86-.86-1.12a.59.59 0 00-.19-.56l-.3-.26c-.01-.05-.01-.09-.03-.13-.12-.34-.18-.69-.2-1.05-.14-1.36-.45-2.7-.92-3.98.17.06.35.07.52.03.63-.1.51-.85.19-1.26-.16-.21-.6-.85-.81-1.18-.25-.52-.47-1.06-.65-1.61-.07-.98-.08-1.97-.02-2.96.25-4.57-1.85-4.86-2.58-5.2-.26-.1-.49-.25-.69-.44-.04.85-1.27 1.4-2.56 1.4-1.32 0-2.57-.51-2.57-1.38 0-.05-.04-.11.11-.27l-.63.09c-.79.2-.98.12-1.28.23-.66.26-1.15.83-1.32 1.52-.41.94-.79 2.01-.79 2.01-.1.23-.22.65-.22.65s-.27-.32-.4-.48c-.26-.32-1.83-1.74-2.1-2-.11-.12-1.13.19-1.13.19 1.46 1.15 2.75 2.5 3.84 4.01.12.25.04.16-.14.08-1.62-.62-3.37-.85-5.09-.67l-.65.91c3.01-.29 5.34.03 5.93.86.16.22.44.32.7.26.25-.05.42-.28.41-.53 0-.14.03-.28.1-.41a10.48 10.48 0 015.3-4.39l1.53 4.75c.38.03.75.1 1.12.2-.11-.28-.75-.83-.55-1.15.05-.08.72.01 1.04-.19.37-.24.94-.74.41-2.12-.1-.25-.22-.55-.26-.66l.26-.09c.03.09.13.35.25.65.74 1.81-.11 2.31-.47 2.65-.06.05-.11.11-.16.17-.14.3-.1.65.1.91.32.11.32.24.32.24l-.01 1.01c-1.31-.35-2.66-.55-4.01-.58.15-.03.65-.26.48-.43-.07-.06-.5.05-.72.07-.19.02-.18-.11-.07-.19.13-.05.25-.12.37-.2.36-.2.65-.51.83-.88.07-.21-.19-.24-.19-.24.03-.2-.15-.29-.38-.19q-.57.285-1.17.48c-.15.02-.25-.12-.16-.21.28-.28.53-.6.73-.95.33-.47-.15-.45-.32-.28-.52.52-1.11.98-1.74 1.35-.24.1-.32.06-.28-.12.05-.23.05-.47 0-.7-.02-.22-.47-.43-.47-.15.03.32-.07.63-.27.88-.32.42-.18.97-.33 1.09-.82.7-1.92.97-2.96.72-.48-.58-1.32-.73-1.97-.34-1.6 1.45-.91 4.71-.81 4.95.7 1.83 1.83.88 2.02.68.81-.85 1.4-1.89 1.7-3.03.59-.16 1.16-.43 1.66-.79.43-.35.9-.63 1.41-.85.34 0 .85-.25 1.03-.19v.22c-.76.43-1.48.94-2.14 1.51-.17.93-2.49 4.09-1.6 4.72.4.28.16.81.01 1.48-.41 1.91-.72 3.85-.92 5.79 0 0-.27 1.01.21 1.32.82.25 1.68.34 2.53.27.27-.03.79.27 1.02.25 0 0-.07 1.64-.33 1.61-.3-.04-.25-1.17-.3-1.06-.05.12-.23-.15-.32-.13-.63.07-1.27.05-1.89-.07-.21-.02-.4.11-.47.3-.09.67-.13 1.35-.14 2.03-.03.51-.11.86-.17 1.47-.03.28-.03 2.28-.09 3.12-.11 1.72-.31 6.25-.36 7.78-3.01.08-5.93-.33-4.8-1.48.19-.2.4-.35.62-.55.86-.78.9-.07 1.82-1.47.73-1.34 1.24-2.79 1.52-4.3.28-1-.1-1.4-.83-.06-.2.46-.43.9-.7 1.32-.26.38-.61.69-1.02.91-.87.36-1.52-1.25-.3-2.65.45-.53.98-.42 1.04-.14.04.12.18.19.3.14.06-.02.11-.07.13-.12q.225-.36.42-.75c.97-1.59 1.56-3.38 1.72-5.23 0-.26-.01-.48-.02-.66 0-1.16-.72-1.57-1-.79-.23.64-.75.48-.6-.36.53-2.32 1.26-4.59 2.19-6.79.13-.39-.17-.48-.27-.56-.14-.13-.24-.17-.17-.51.44-1.46 1.03-2.87 1.76-4.21.22-.31-.07-.47-.31-.09-3.18 4.93-4.5 13.22-4.48 13.75.06 2.16 1.34 1.03 1.34 1.03-.3 1.06-.82 2.03-1.53 2.87-2.8 4.08-1.65 5.96-1.65 5.96.44.83 1.21 1.54-.5 2.86-.55.43-2.32 1.7-.34 3.05.61.42 1.05.68 1.36.85h-2.92c.35.24.57.63.6 1.06 0 .74-.5.74-1.42.75l-10.09-.01c-.62 0-1.12.02-1.37-.24a.65.65 0 01-.18-.51c.03-.42.24-.81.59-1.06L10.56 61c-.06-.15-.12-.31-.18-.46a43.6 43.6 0 01-2.72-15.29 41.8 41.8 0 018.12-25.17c.02-.02.03-.05.05-.07v13.24a.91.91 0 00-1.05.16c-.02.02-.04.05-.06.07A1.108 1.108 0 0116 34.71c-.05.05-.11.09-.17.12v.36c.36.65 1.07 1.04 1.81 1 .93 0 1.7-.75 1.72-1.68a.53.53 0 00-.29-.22c-.14.48-.64.75-1.11.61a.893.893 0 01-.61-1.11c.14-.48.64-.75 1.11-.61.37.11.62.43.65.81.12.01.38-.01.42-.52a.91.91 0 01-.75-1.04c.08-.49.55-.83 1.04-.75s.83.55.75 1.04c-.06.38-.36.69-.75.75.03.51.3.53.42.52.03-.49.46-.87.95-.84s.87.46.84.95-.46.87-.95.84a.9.9 0 01-.81-.65c-.12.03-.22.11-.29.22.02.94.79 1.68 1.72 1.68.87.05 1.66-.49 1.94-1.31a.91.91 0 01-.59-.84c0-.21.07-.41.21-.57a1.097 1.097 0 011.25 1.26c.02-.02.05-.03.07-.05a.9.9 0 000-1.27.91.91 0 00-.87-.24V18.65S22.46 7.94 38.88 7.73c15.65-.11 15.46 10.96 15.46 10.96v14.45a.9.9 0 00-.74 1.53c.02.02.05.04.07.05-.06-.35.05-.71.31-.95.25-.25.6-.36.95-.31.14.16.23.37.23.58 0 .38-.24.72-.59.85.28.82 1.08 1.35 1.94 1.31.93-.01 1.7-.75 1.72-1.69a.5.5 0 00-.29-.22c-.13.48-.63.77-1.11.63-.48-.13-.77-.63-.63-1.11s.63-.77 1.11-.63c.37.1.64.43.66.81.12.02.39 0 .42-.52a.92.92 0 01-.76-.89.905.905 0 111.81-.01c0 .44-.32.82-.76.9.03.51.3.53.42.52.03-.5.46-.88.95-.85.5.03.88.46.85.95-.03.5-.46.88-.95.85a.9.9 0 01-.81-.65c-.12.04-.22.12-.28.22.02.93.78 1.68 1.72 1.69.87.04 1.66-.49 1.95-1.31a1 1 0 01-.28-.17c-.06-.35.06-.71.31-.95.25-.25.61-.36.96-.31l-.06-.06a.88.88 0 00-.81-.25V20.01c.02.02.04.05.06.07m4.55 13.7c.25-.25.61-.36.96-.31-.02-.02-.03-.05-.06-.07a.91.91 0 00-1.28 0 .9.9 0 000 1.27c.02.02.04.04.07.05-.06-.34.06-.69.31-.94M38.2 86.91c.01.57.48 1.02 1.05 1.01s1.02-.48 1.01-1.05a1.03 1.03 0 00-1.03-1.01c-.58.01-1.04.47-1.03 1.05m7.31-1.56c-.12-.37-.26-.73-.41-1.08-.4-.17-.84-.21-1.26-.14-1.01.16-1.64.78-1.51 1.6.13.74.76 1 1.46 1.12l.24.04c.39.07.69.23.75.57.05.34-.18.66-.52.71h-.02c-.5.03-.96-.29-1.12-.77l-.28.08c.14.45.23.76.31 1.01.34.05.67.06 1.01.03 1.07-.17 1.55-.82 1.43-1.58-.1-.62-.73-.85-1.3-.97l-.27-.05c-.5-.11-.77-.36-.83-.73a.66.66 0 01.57-.73h.04c.62 0 1.18.37 1.43.94zm3.32.93c.22.66.18.71-.36.93l.08.25 2.15-.72-.08-.24c-.56.15-.63.13-.85-.53l-.68-2c-.22-.64-.18-.71.36-.93l-.09-.25-2.14.72.08.25c.56-.15.63-.12.85.53zm5.37-1.46-.33.17c-.31.17-.53.24-.7.19-.14-.04-.29-.15-.53-.46l-.23.15c.21.3.53.8.68 1.09l.13-.07c.03-.16.05-.2.25-.31l2.58-1.37c.2-.11.27-.13.43-.05l.13-.07c-.15-.29-.32-.72-.54-1.19l-.23.13c.08.21.1.44.07.66-.04.15-.16.31-.65.57l-.19.11-1.33-2.49c-.33-.6-.3-.67.24-1l-.13-.23-2.1 1.12.12.23c.6-.28.67-.26.99.34zm3.06-6.17-.13.12c-.19.18-.19.26.19.49l.52.3 1.02-.79c-.03-.1-.14-.4-.24-.67-.11-.27-.2-.3-.42-.16l-.19.12-.16-.21 1.34-1.03.16.2c-.28.28-.4.4-.23 1.05l.9 3.43-.23.27-3.25-1.86a.737.737 0 00-.99.04l-.16-.21 1.69-1.3zm1.73.47-.83.64 1.23.73.02-.02zm4.58-1.25-.25.26c-.25.26-.43.39-.6.4-.24-.02-.47-.12-.65-.27l-.17.21c.29.23.75.6.99.82l.1-.11c-.04-.14.02-.29.14-.37l2.02-2.1c.16-.16.22-.21.4-.18l.1-.11c-.23-.23-.53-.58-.89-.96l-.18.19c.14.18.23.39.28.61.01.15-.06.35-.44.75l-.15.16-2.05-1.95c-.49-.47-.49-.54-.08-1.02l-.19-.18-1.65 1.71.19.18c.48-.45.56-.46 1.05.02zm2.32-7.26c-.56-.39-.63-.37-1 .08l-.21-.15 1.28-1.82.21.15c-.31.5-.3.58.26.97l1.74 1.21c.57.4.64.37.99-.07l.21.15-1.35 1.92c-.19.31-.46.57-.78.74-.33.14-.71.09-.99-.12-.42-.31-.56-.87-.36-1.35-.23-.02-.77-.03-1.11-.03-.27-.01-.55.01-.81.06-.18.05-.34.13-.49.23l-.19-.16.22-.3c.49-.68.83-.75 1.25-.76.37-.01.89.05 1.2.07.23.02.3-.02.46-.25l.09-.12zm.86.6-.17.25q-.195.255-.24.57c-.01.31.15.59.42.75.35.29.87.23 1.16-.12.02-.03.05-.06.07-.09.22-.32.22-.34.01-.49zm2.47-6.4c-.62-.3-.64-.37-.39-.95l-.23-.12-1.63 3.25c.13.13.71.57.91.72l.15-.23c-.18-.16-.33-.35-.43-.57a1.1 1.1 0 01.18-.79c.08-.21.21-.4.37-.55.12-.09.33-.03.66.13l.83.41-.28.55c-.24.49-.28.49-.74.35l-.12.24 1.25.62.12-.24c-.39-.28-.42-.32-.17-.8l.27-.55 1.13.56c.21.1.21.11.09.34l-.16.32c-.2.4-.36.55-.47.59-.23.05-.46.03-.67-.06l-.11.25c.45.18.86.35 1.02.42l1.53-3.04-.23-.12c-.28.5-.35.52-.97.21zm4.26-5.15c.65.22.7.18.92-.33l.25.08-.75 2.23c-.27.79-.71 1.23-1.37 1.01a1.04 1.04 0 01-.57-1.15h-.02c-.19.58-.81.91-1.4.75-.94-.32-.8-1.39-.52-2.2l.68-2 .25.08c-.16.57-.13.64.52.86zm-1.33.55-.98-.33c-.6-.2-.76-.02-.87.32a.78.78 0 00.53 1.03c.63.21 1.04-.18 1.22-.74zm.31.1-.12.34c-.18.36-.03.8.33.98s.8.03.98-.33c.02-.05.04-.1.06-.16.12-.35.1-.37-.11-.44zm1.93-4.21c.68.14.71.21.62.78l.26.06.47-2.2-.26-.06c-.16.56-.21.61-.89.46l-2.07-.44c-.67-.14-.71-.2-.62-.78l-.26-.06-.47 2.2.26.06c.16-.56.21-.6.89-.46zm-2.43-4.01c.25.08.88.28 1.2.37l.06-.27c-.26-.1-.49-.25-.69-.44a.94.94 0 01-.12-.75c0-.19.06-.38.16-.55.09-.12.29-.15.65-.11l2.08.22c.69.07.72.13.69.76l.26.03.25-2.29-.26-.03c-.1.57-.14.62-.84.55l-2.1-.23c-.69-.07-.73-.12-.7-.76l-.26-.03zm2.72-4.77c.57 0 1.02-.46 1.02-1.03s-.46-1.02-1.03-1.02c-.56 0-1.01.45-1.02 1.01-.01.57.45 1.03 1.02 1.04zm-2.09-4.99.03.17c.05.26.12.3.51.11l.55-.26-.09-1.28c-.11-.03-.41-.11-.69-.17-.29-.06-.36 0-.37.26v.22l-.26.02-.12-1.69.27-.02c.07.39.1.56.74.77l3.37 1.17.1.34-3.36 1.64c-.36.11-.58.47-.52.83l-.27.02-.14-2.12zm1.36-1.17.07 1.04 1.3-.6v-.03zm-2.16-3.1c1.38.32 3.25.84 3.43.9.63.21.76.3.88.76l.26-.04-.27-1.7-.26.04.01.18c.02.33-.09.37-.44.3-.34-.07-1.85-.36-2.33-.48l2.08-1.3c.28-.18.38-.19.45.07l.07.21.26-.04-.34-2.12-.26.04c.09.35-.1.71-.43.84l-3.16 1.98zm-.51-4.16.06.17c.09.24.17.28.52.02l.49-.36-.32-1.24c-.11-.01-.43-.04-.71-.05-.29-.01-.35.06-.31.32l.03.21-.25.06-.43-1.64.26-.06c.14.37.2.52.87.63l3.53.53.16.32-3 2.23c-.33.17-.49.56-.36.91l-.25.06-.53-2.05zm1.12-1.4.26 1.02 1.16-.83-.01-.02zm.98-4 .13.34c.12.22.15.47.1.71-.06.14-.19.26-.53.47l.12.25c.33-.16.87-.41 1.18-.52l-.05-.14c-.15-.05-.2-.07-.28-.28l-1.02-2.73c-.08-.21-.09-.28.01-.43l-.05-.14c-.31.1-.76.22-1.25.37l.09.25c.22-.05.45-.04.67.02.14.06.29.2.48.72l.08.2-2.65.98c-.64.24-.71.2-.96-.37l-.25.09.83 2.22.25-.09c-.19-.63-.17-.69.47-.93zm-5.2-3.08.1.15c.14.22.22.23.52-.09l.4-.45-.57-1.15c-.11.01-.43.05-.71.09-.29.05-.33.13-.24.38l.08.2-.24.12-.75-1.52.23-.1c.22.33.31.47.99.43l3.56-.2.22.28-2.48 2.8a.74.74 0 00-.16.97l-.23.12-.95-1.9zm.81-1.59.47.94.97-1.05-.01-.03zm-1.82-5.79c.57-.38.57-.44.3-.92l.22-.15 1.3 1.96c.46.7.54 1.32-.04 1.69-.43.21-.95.11-1.26-.26l-.01.01c.35.51.23 1.2-.27 1.57-.82.54-1.6-.23-2.07-.94l-1.17-1.76.22-.15c.36.47.43.49 1 .12zm-.37 1.39-.86.57c-.52.35-.48.59-.28.88.23.37.71.48 1.08.25.02-.01.04-.03.06-.04.43-.28.55-.85.27-1.28a.6.6 0 00-.1-.13zm.26-.18.2.3a.735.735 0 001.09.28c.32-.23.4-.68.17-1-.01-.02-.02-.03-.04-.05-.2-.31-.23-.31-.42-.19zm-1.71-2.18c.44-.36.52-1.01.16-1.45-.37-.43-1.03-.49-1.47-.13-.45.35-.52 1-.17 1.44.35.45 1 .52 1.44.17.01-.01.02-.02.04-.03m-2.67-5.84c.93.73 1.09 2.08.35 3.01-.04.05-.08.09-.12.14-.82.92-2.23.99-3.14.18-.04-.04-.08-.07-.12-.11-.94-.74-1.09-2.1-.35-3.03a1 1 0 00.08-.1c.84-.93 2.28-1 3.2-.16.05.01.08.04.1.07m-2.33.67c-.78.83-.99 1.8-.41 2.34.44.41 1.17.44 2.03-.47.69-.73 1.04-1.77.42-2.35-.45-.43-1.29-.32-2.04.48M58.3 10c.22-.34.46-.67.72-.97.16-.17.38-.14.71.07l.14-.22-1.56-1.03-.15.22c.38.27.5.46.41.67-.18.36-.39.71-.62 1.04l-.54.81-.02-.01-.57-3.71-1.21-.8-.14.21c.51.39.56.59.14 1.21l-.65.98c-.22.34-.45.66-.71.96-.16.17-.38.15-.72-.06l-.15.22 1.55 1.02.15-.21c-.38-.28-.5-.48-.4-.68.18-.35.39-.7.62-1.02l.7-1.05.01.01.57 4.11.38.25zm-8.36-6.51-.1.24c.53.27.55.33.28.97L49.56 6c-.28.47-.32 1.05-.12 1.56.25.38.61.68 1.04.83.45.22.97.26 1.44.1.51-.25.89-.69 1.07-1.23l.2-.46c.14-.36.32-.71.53-1.04.12-.19.35-.2.68-.07l.1-.24-1.68-.72-.1.24c.39.19.54.36.49.57-.09.38-.22.75-.39 1.1l-.17.39c-.39.91-.96 1.41-1.71 1.09-.69-.3-.78-1-.37-1.94l.47-1.08c.28-.64.34-.66.88-.47l.1-.24zm-3.75-.97c.69.1 1.31.44 1.76.97.29.42.39.94.27 1.44-.35 1.55-1.73 1.93-3.22 1.6l-1.97-.44.06-.25c.59.09.66.06.81-.61l.46-2.06c.15-.68.1-.72-.42-.88l.06-.25zm-1.33 2.94c-.12.52-.08.68.36.78.99.22 1.66-.34 1.89-1.4.26-1.17-.18-1.81-1.14-2.03-.29-.07-.41-.07-.45-.04-.05.03-.09.13-.13.31zm-3.03-2.38c-.04-.59-.06-.96-.09-1.18-.44-.13-.9-.21-1.36-.23-1.31-.2-2.53.71-2.72 2.02-.01.06-.02.12-.02.17-.03 1.29 1.02 2.17 2.6 2.2.54-.01 1.07-.09 1.59-.23-.04-.19-.05-.39-.05-.58l.01-.45c.01-.46.06-.47.41-.51v-.26l-2.18-.04-.01.26c.76.06.79.11.78.54l-.01.54c-.01.37-.29.41-.49.4-1.12-.03-1.58-1-1.56-1.97.02-1.23.71-1.77 1.49-1.76.65-.05 1.23.43 1.3 1.08zm-10.31-.47.05.25c.6-.06.65-.02.77.66l.23 1.39c.02.55.29 1.06.75 1.37.42.19.88.24 1.33.14.5-.06.95-.31 1.26-.69.29-.49.37-1.07.22-1.61l-.08-.49c-.07-.38-.11-.77-.12-1.16 0-.23.18-.36.53-.43l-.04-.26-1.81.3.04.26c.43-.06.65.01.72.22.12.37.21.75.27 1.13l.07.42c.17.98-.04 1.7-.84 1.84-.74.13-1.19-.43-1.37-1.43l-.19-1.16c-.11-.68-.07-.74.49-.87l-.04-.26zm.2 4.28c-.03-.25-.11-.91-.17-1.24l-.28.06c.03.29-.01.56-.1.82-.08.18-.28.3-.63.42-.18.08-.37.11-.56.09-.15-.03-.26-.2-.38-.54l-.68-1.97c-.23-.66-.18-.71.4-.95l-.08-.25-2.19.75.09.25c.56-.15.63-.14.85.52l.68 1.99c.23.65.2.71-.39.95l.09.25zm-5.83-.21c-.27-.5-.89-.69-1.39-.42s-.69.89-.42 1.39.89.69 1.38.42c.51-.26.7-.89.43-1.39m-3.3 4.24.13-.12c.2-.17.2-.25-.16-.49l-.51-.33-1.05.73c.03.11.12.41.2.68.09.28.18.31.41.18l.19-.11.15.21-1.4.97-.15-.21c.3-.27.42-.37.29-1.03l-.72-3.48.24-.26 3.15 2.02c.28.25.7.26.98.01l.15.22-1.75 1.21zm-1.71-.56.86-.6-1.19-.8-.02.01zm-3.44.9c-.47-.51-.45-.58-.05-.99l-.18-.2-1.68 1.51.18.19c.46-.36.53-.37.99.14l1.43 1.57c.46.51.45.58.05.99l.17.19 1.68-1.51-.17-.2c-.46.36-.53.37-.99-.14zm-4.16 2.66 1.33 2.72-2.97-.77-1.01 1.2.2.17c.45-.47.49-.51 1.06.04l1.01.96c.27.24.52.49.75.77.15.2.15.37-.09.68l.2.16 1.13-1.35-.2-.17c-.32.33-.51.41-.7.27-.32-.23-.63-.49-.92-.76l-1.05-.94.01-.02 3.32.95.16-.19-1.62-3.33.02-.02 1.94 1.57c.5.4.49.45.11.97l.2.17 1.49-1.77-.21-.17c-.45.48-.48.47-.99.08l-1.77-1.4c-.51-.39-.5-.44-.11-.97l-.2-.17zm-2.49 8.85c.59.35.61.42.31.99l.23.13 1.89-3.11c-.12-.14-.66-.63-.85-.8l-.17.23c.17.17.3.38.38.6.02.28-.07.55-.24.77-.1.2-.24.38-.41.52-.13.08-.34.01-.65-.18l-.8-.48.32-.53c.28-.46.32-.46.76-.28l.14-.23-1.2-.72-.14.23c.37.31.39.35.11.81l-.32.53-1.06-.65c-.2-.12-.19-.13-.06-.35l.18-.3c.23-.38.4-.52.52-.55.23-.03.46.01.66.11l.13-.24c-.43-.22-.82-.42-.98-.51l-1.77 2.91.23.15c.32-.47.39-.49.98-.13zm0 0c.59.35.61.42.31.99l.23.13 1.89-3.11c-.12-.14-.66-.63-.85-.8l-.17.23c.17.17.3.38.38.6.02.28-.07.55-.24.77-.1.2-.24.38-.41.52-.13.08-.34.01-.65-.18l-.8-.48.32-.53c.28-.46.32-.46.76-.28l.14-.23-1.2-.72-.14.23c.37.31.39.35.11.81l-.32.53-1.06-.65c-.2-.12-.19-.13-.06-.35l.18-.3c.23-.38.4-.52.52-.55.23-.03.46.01.66.11l.13-.24c-.43-.22-.82-.42-.98-.51l-1.77 2.91.23.15c.32-.47.39-.49.98-.13zm-4.68 2.31c.24-.65.7-1.19 1.31-1.52.47-.2 1.01-.18 1.47.03 1.46.65 1.56 2.07.93 3.46l-.83 1.83-.24-.11c.21-.56.19-.63-.43-.91l-1.94-.87c-.64-.29-.69-.25-.95.23l-.24-.11zm2.62 1.88c.49.22.65.21.84-.2.41-.92 0-1.68-1-2.13-1.1-.49-1.82-.19-2.23.71-.12.27-.15.38-.13.43s.11.11.28.19zm-.87 4.55.03-.18c.05-.26 0-.32-.43-.29l-.6.06-.37 1.22c.08.07.34.25.58.41s.33.13.44-.11l.08-.2.25.08-.5 1.62-.25-.08c.07-.39.1-.56-.41-.99l-2.73-2.28.03-.35 3.73-.34c.37.03.71-.23.78-.59l.25.08-.62 2.03zm-1.69.61.31-1-1.43.11-.01.03zm-1.89 2.15c-.47-.02-.8-.05-1.16-.09-.2.41-.34.84-.43 1.29-.38 1.25.33 2.58 1.58 2.96.06.02.12.03.17.05 1.19.2 2.33-.6 2.53-1.79.03-.1.04-.19.04-.29.07-.46.09-.93.06-1.4-.37-.21-.75-.4-1.14-.56l-.07.26c.65.48.95.9.84 1.51-.16.87-1.02 1.37-2.2 1.15-1.02-.18-1.66-.84-1.49-1.78.08-.62.62-1.07 1.24-1.04zm1.66 7.12v-.18c-.01-.26-.07-.31-.49-.19l-.58.18-.1 1.28c.1.05.39.17.66.28s.35.06.4-.2l.04-.21.26.02L6 44.05l-.26-.02c-.02-.4-.02-.57-.62-.87l-3.16-1.64-.05-.35 3.57-1.14c.53-.18.57-.36.64-.75l.26.02-.16 2.12zm-1.51.96.08-1.05-1.37.41v.03zm-.69 2.88c-.57.03-1 .51-.98 1.07.03.57.51 1 1.07.98.56-.03.99-.49.98-1.05-.02-.57-.5-1.02-1.07-1m-1.59 5.64 2.91.87-2.58 1.66.21 1.55.26-.03c-.05-.64-.05-.7.74-.75l1.39-.09q.54-.045 1.08-.03c.25.03.37.14.44.52l.26-.03-.23-1.74-.26.04c.03.46-.04.65-.28.7-.39.08-.79.13-1.18.15l-1.4.11v-.02l2.95-1.79-.03-.24-3.57-1.06-.01-.03 2.47-.37c.64-.09.67-.06.79.58l.26-.03-.3-2.29-.27.03c.05.65.02.68-.6.78l-2.23.35c-.63.1-.66.07-.79-.58l-.26.04zm2.32 10.65.25-.07c-.13-.59-.1-.65.57-.84l1.37-.39c.72-.21 1.13-.5 1.29-.89.14-.43.14-.9-.01-1.33-.11-.49-.41-.91-.84-1.17a2.14 2.14 0 00-1.63-.04l-.48.14c-.37.12-.75.2-1.14.25-.23.03-.38-.14-.49-.47l-.26.06.51 1.75.26-.07c-.1-.42-.07-.64.14-.74.35-.16.72-.29 1.1-.39l.41-.12c.96-.27 1.7-.16 1.93.62.21.72-.29 1.23-1.28 1.52l-1.13.33c-.67.19-.73.15-.93-.39l-.25.08zm1.82 1.75c-.65.26-.7.22-.95-.3l-.24.1.86 2.09.24-.1c-.19-.55-.17-.62.47-.88l1.97-.8c.64-.26.7-.22.95.3l.24-.1-.86-2.08-.24.1c.18.55.17.62-.47.88zm1.66 5.86c-.38-.58-.54-1.27-.45-1.96.13-.49.45-.91.91-1.15 1.39-.77 2.6-.01 3.34 1.32l.98 1.76-.23.13c-.32-.51-.39-.53-.99-.2l-1.86 1.03c-.61.33-.61.4-.38.9l-.23.12zm3.08-.97c.47-.26.56-.4.34-.79a1.524 1.524 0 00-2.31-.47c-1.05.58-1.24 1.34-.76 2.2.15.26.22.35.27.37.11-.01.22-.05.32-.11zm.38 4.48c-.56.41-.62.39-1-.06l-.21.15 1.34 1.82.21-.15c-.32-.49-.32-.56.24-.97l1.71-1.25c.56-.41.62-.39 1 .06l.21-.15-1.34-1.82-.21.15c.31.49.31.56-.24.97zm5.43 3.69c.27-.37.62-.8.68-.94-.08-.42-.28-.81-.58-1.12-.69-.75-1.56-.94-2.17-.38-.46.51-.52 1.26-.14 1.83l.1.23c.19.29.16.67-.07.93-.26.23-.65.21-.88-.04l-.02-.02c-.3-.4-.29-.96.03-1.35l-.22-.19c-.3.36-.52.61-.68.81.14.31.32.59.54.86.73.79 1.54.84 2.11.33.47-.43.31-1.07.1-1.62l-.1-.25c-.2-.36-.14-.8.16-1.09.28-.23.69-.19.92.09l.03.03c.34.52.34 1.18 0 1.7zm3.72 2.83c.44-.53.51-.54 1.02-.16l.17-.2-2.81-2.32c-.16.1-.72.56-.91.72l.2.2c.19-.14.42-.24.65-.29.28.02.54.15.73.35.18.13.34.29.45.48.06.14-.04.33-.28.61l-.6.72-.48-.39c-.42-.35-.42-.38-.17-.79l-.21-.17-.89 1.07.21.18c.36-.32.4-.34.82.01l.48.4-.81.96c-.15.18-.16.17-.36.01l-.27-.23c-.35-.29-.46-.47-.47-.59.01-.23.08-.45.21-.64l-.22-.16c-.28.39-.54.75-.65.89l2.64 2.17.17-.2c-.42-.39-.43-.45.01-.98zm3.63 1.51-.16-.08c-.24-.11-.31-.08-.38.35l-.09.59 1.11.65c.08-.07.32-.27.54-.47s.21-.29-.01-.45l-.18-.12.14-.23 1.46.86-.13.23c-.36-.16-.52-.23-1.06.17l-2.87 2.11-.34-.11.54-3.69a.75.75 0 00-.4-.9l.13-.23 1.84 1.08zm.2 1.78-.91-.53-.23 1.4.03.02zm5.21 1.59c.24-.64.2-.7-.34-.94l.09-.25 2.11.76-.09.25c-.57-.17-.64-.15-.88.5l-.73 1.98c-.24.65-.2.71.31.93l-.09.25-2.21-.81c-.35-.1-.67-.3-.92-.57-.22-.28-.27-.66-.14-.99.2-.48.7-.77 1.22-.69a12 12 0 00-.25-1.08 3.4 3.4 0 00-.27-.76c-.09-.16-.21-.3-.34-.41l.11-.22.35.13c.78.3.94.6 1.06 1 .11.36.18.87.24 1.18.04.22.1.28.36.38l.14.05zm-.36.99-.28-.11c-.19-.08-.41-.11-.62-.09-.3.07-.54.3-.62.59a.825.825 0 00.52 1.12c.36.13.38.13.47-.12zm5.49.28c.12-.68.07-.73-.58-.88l.04-.26 2.3.39-.04.26c-.58-.06-.65-.02-.76.65l-.35 2.09c-.12.68-.07.73.47.85l-.05.26-2.29-.38c-.92-.15-1.49-.65-1.36-1.45.13-.77.82-1.08 1.61-1.06.14.01.28.02.42.05l.46.22zm-.18 1.04a1.3 1.3 0 00-.42-.17c-.25-.04-.85-.01-.99.85-.1.44.18.87.61.97.03.01.07.01.1.02.39.07.4.06.45-.25zm2.69-8.97c-.05-.86-1.13-1.04-1.23-1.06a.46.46 0 01-.28-.21c-.02-.05-.49-1.09-1.34-.92-.69.14-.64.87-.59 1.18.07.38.23.74.46 1.06.1.15.14.37.23.55.2.04.43.03.59.09.37.14.76.2 1.15.17.32-.02 1.05-.16 1.01-.86m7.77.55c.19.04.32.23.28.42a.36.36 0 01-.42.28c-.22-.05-.45-.07-.67-.06-.06.22-.1.44-.11.66a.36.36 0 01-.38.34.36.36 0 01-.34-.38c.01-.16.03-.31.05-.46-.02.01-.04.01-.06.02-.45.17-.94.24-1.42.21-1.06-.09-1.71-.73-1.67-1.62.08-.74.61-1.34 1.33-1.51l-2.49-3.18-2.48 3.18c.72.17 1.26.77 1.33 1.51.05.9-.6 1.53-1.66 1.62-.48.04-.97-.04-1.42-.21-.02-.01-.04-.01-.05-.02.03.15.04.31.05.46.01.2-.14.37-.34.38a.36.36 0 01-.38-.34c-.01-.23-.05-.45-.11-.66-.23-.01-.45.01-.67.06a.36.36 0 01-.42-.28.36.36 0 01.28-.42c.15-.03.31-.05.46-.06-.01-.02-.02-.03-.03-.05-.28-.4-.47-.85-.55-1.32-.26-.83.2-1.71 1.03-1.97.04-.01.09-.03.14-.04.74-.13 1.47.24 1.8.91l2.6-3.33-1.51-1.93-2.59 2-.5-.64 1.29-1-.5-.64-1.29 1-1-1.29.65-.5.5.64.65-.51-.5-.64.65-.5 1 1.28.65-.5-1-1.29.57-.44 3.41 4.36 3.41-4.36.57.44-1 1.29.65.5 1-1.28.65.5-.5.64.65.51.5-.64.65.5-1.01 1.29-1.29-1-.5.64 1.29 1-.5.64-2.59-2-1.51 1.93 2.6 3.33c.33-.67 1.07-1.04 1.8-.91.85.19 1.39 1.03 1.2 1.87-.01.04-.02.09-.04.13-.09.48-.28.93-.56 1.32-.01.02-.02.03-.03.05.1.02.25.04.4.07m-.58-1.56c.05-.31.1-1.05-.59-1.18-.85-.17-1.32.87-1.34.92-.06.11-.16.18-.28.21-.1.01-1.18.19-1.23 1.06-.04.7.69.84 1 .87.39.03.78-.03 1.15-.17.17-.05.4-.04.6-.09.09-.18.14-.4.23-.55.23-.32.39-.68.46-1.07m20.06-8.6C59.6 75.55 52.25 81 43.83 82.48a7.96 7.96 0 01-9.29-.01c-8.39-1.49-15.72-6.94-20.59-14.7h17.3v-2.49h15.9v2.49zm-32.95 8.29a7.65 7.65 0 007.69 7.62c4.2-.02 7.6-3.42 7.62-7.62V65.57H31.54zM14.8 60.64h.03l.02-.01c-.01.01-.03.01-.05.01m9.45 0 .02.01h.03c-.01-.01-.03-.01-.05-.01m20.76-15.03a.4.4 0 00-.15-.03c-.13-.01-.25.11-.14.23.07.08.1-.13.25 0 .07.06.16.06.23.01s.17-.05.25-.01c.08.05.19-.19.01-.24a.32.32 0 00-.27.03c-.12.07-.09.03-.18.01m.09.66c-.28-.01-.62.05-.67 1.64.29-.06.59-.07.88-.03.02-.33.06-.66.11-.99.05-.18.03-.6-.32-.62m1.22-1.82c-.35-.09-.68-.21-1.01-.36-.05-.03-.12 0-.15.05 0 0 0 .01-.01.01-.03.06 0 .13.06.16.1.05.21.1.31.14-.1.07-.15.19-.14.3 0 .18.09.32.2.32s.2-.15.2-.32c0-.08-.02-.15-.05-.22.17.06.34.11.51.16m-1.66.1c0-.1-.03-.2-.09-.29.12-.06.24-.13.34-.21.05-.05.06-.12.02-.18-.03-.05-.1-.06-.15-.03l-.01.01c-.35.23-.75.39-1.16.46-.06.02-.1.08-.09.14.01.07.06.11.13.11.2-.04.41-.1.61-.16q-.03.075-.03.15c0 .2.1.36.22.36.11-.01.21-.17.21-.36m3.61-4.1c.03.03.05.06.08.09-.02-.11-.03-.23-.05-.34a1.78 1.78 0 00-.8-1.04c-.23.13-.49.19-.75.18.18.27.29.57.34.89.41-.14.85-.05 1.18.22m-3.43 10.95c.19-.29.75-.95.75-.95.68-.7 1.26-.96 1.52-1.87.25-.85.25-.92.47-1.81.23-.95-.4-1.98-.63-1.2-.27.9-.25 1.94-.51 2.67a3.4 3.4 0 01-1.21 1.58c-.07.07-.14.15-.21.22-.06-.04-.13-.08-.2-.11-1.3-.57-1.82-.84-2.01-2.03-.22-1.36.16-1.53-.38-2.84-.13-.22-.34.21-.47.52-.06.23-.07.47-.04.71-.01.8.05 1.6.2 2.38.39 1.1 1.21 1.49 2.41 1.99-.22.33-.38.7-.46 1.09-.06.84.16 1.69.65 2.38a4.13 4.13 0 01.12-2.73m1.56-7.19c.23-.47.11-1.04-.3-1.37-.01-.09-.02-.18-.02-.27.1-.66.5-1.23 1.08-1.55.16-.08.39-.18.52-.03.28.46.35 1.02.2 1.54q-.09-.3-.21-.6a.533.533 0 00-.69-.27c-.26.11-.38.42-.27.68.39 1.01.74 2.05 1.02 3.1l.19.64c.14 1.52-.13 3.05-.8 4.42-.67 2.06-.95 4.22-.83 6.38.31-2.2.83-4.36 1.58-6.45.2-.44.38-.9.53-1.36-.09 3.08-.51 6.15-1.25 9.14-.25.93-.68 1.8-1.26 2.56-.22.3-.47.57-.74.82l-.06-.03-.01-.01c-.02-.01-.05-.03-.07-.04l-.01-.01c-1.02-.65-1.93-1.45-2.71-2.37-.39-.46-.73-.95-1.04-1.46-1.4-2.42-1.82-4.28-1.97-8.49-.03-.92-.05-1.94-.07-3.1-.01-.39-.01-.8-.01-1.22-.06-1.82.04-3.64.3-5.44.85-.28 1.71-.51 2.58-.68 1.04-.24 2.1-.33 3.17-.25-.05.08-.04.18.03.25.12.15.27.27.43.36-.3.16-.55.39-.75.66-.18-.39-.52-.68-.93-.81-.57-.14-1.15-.01-1.6.91-.53-.24-1.16-.19-1.65.13-.75.6-.93 2.22.22 4.3-.1.3-.21.59-.28.84-.92 3.04.4 4.73 1.25 6.38.74 1.8 1.36 3.64 1.88 5.52.02-2.05-.36-4.08-1.1-5.99-.62-1.26-1.82-3.21-1.11-5.41.38-.98.71-1.97.99-2.98.03-.59-.73-1.25-.95-.53-.06.31-.15.62-.25.95-.49-1.13-.56-2.03-.18-2.35.33-.15.72-.13 1.03.06.48.4.84.93 1.03 1.52h-.01c.13.41.12.85-.02 1.26-.21.74-.51 1.03-.03 1.47.24.19.51.35.79.47 0 0-1.49 3.13.72 3.49.48.08 1.04-.12 1.04-.47-.09-.55.01-1.12.27-1.61.14-.27.62-1.2.41-1.58-.1-.27-.15-.57-.15-.86m-.99 6.73c.05.03.09.09.1.15.06.07.11.15.15.23.2.79.21 1.61.03 2.41.54-.83.7-1.84.45-2.8-.07-.18-.17-.36-.29-.52 0 0-.51.47-.44.53m3.17-6.24c.01-.58.01-1.17.01-1.75-.07.25-.16.52-.27.8.07.29.16.6.26.95m-4.2-2.83c.07-.02.15-.03.22-.04.02-.5-.02-1-.12-1.49-.13-.56-.38-.73-.59-.78-.17.17-.4.09-.66.53.48.52.86 1.12 1.1 1.78.02.01.03.01.05 0m1.73-2.2c-.36-.02-.6.31-.68.82-.09.56-.14 1.01-.18 1.31.09 0 .19.01.28.02.15-.53.43-1 .81-1.39-.01-.02-.01-.05-.01-.07.07-.46-.08-.68-.22-.69m-.54 6.73c.04-.19.03-.61-.33-.63-.28-.01-.62.05-.67 1.64.29-.06.59-.07.88-.03.03-.33.07-.66.12-.98m8.82-.74h-.36v.75h.36zm-2.63-.95h-.36v.75h.36zm.32-3.76h-.36v.75h.36zm5.2-2.89h-.36v.75h.36zm-4.26-.07h-.36v.75h.36zm1.35 1.63c-.78-.12-.67-.29-.61-.38.11-.17.01-.27-.11-.29-.13-.02-.28.06-.25.3.06.51.97.37.97.37m9.37-.26.29-.59-.7.34-.07-.54-.38.45-.47-.51.02.58zm-.38 14.12c-.02.12-.04.28-.15.31a.6.6 0 00-.3.15c-.14.11-.11.15.07.16.3.01.61-.45.63-.54s.27-.25.38-.29c.15-.07.01-.23.01-.23l-.27-.06c.04-.17.01-.35-.09-.5.4.03.8-.07 1.14-.29.07-.08.26-.23.25-.33a.5.5 0 00-.16-.28 1.55 1.55 0 00-1.02-.05.82.82 0 01-.91-.11c-.03-.04-.02-.11.02-.21.1.08.37.01.49-.04.17-.08.2-.29.03-.33-.5-.11-.6.19-.6.19-.14.22-.16.39-.07.49.31.24.72.31 1.09.16.29-.09.6-.07.89.04.04.03 0 .21 0 .22.01.06-.09.11-.13.15-.19.22-.93.24-1.23.24-.38-.1-.78-.01-1.08.23-.23.17-.39.23-.51.18-.24-.11.29-.65.36-.73.09-.11.06-.19-.08-.14-.51.17-.54-.14-.6-.25-.09-.14-.1-.06-.16.03-.09.13.12.75-.36.86a.953.953 0 01-1.15-.56l-.14.05c.09.29.3.53.57.66.23.13.22.2.23.3l.22.21c-.02.07-.18.4-.18.4-.02.16-.61.64-.61.64-.17-.01-.53.1-.46.19.2.27.66.02.66.02.28-.35.61-.65.97-.9 0 0 .87-.25 1.13-.35.24-.1.17.04.17.04-.18.29-.34.58-.48.89-.25.04-.53.23-.43.32.22.2.6-.17.6-.17-.05-.09.22-.38.22-.38l.36-.79.36-.16c.05.17.16.31.31.39.2.08.01.17.01.17m-38.42-6.51c.34-.38.91-.41 1.29-.07q.135.12.21.27c-.3-.02-.6.01-.88.1 0 0 .91.32.69.88a1.26 1.26 0 00-.74-.42s.25.83-.25 1.05c0 0-.1-.74-.59-.71-.28.02-.49.27-.47.55 0 .02 0 .03.01.05 0 0-.3-.17-.3-.78a.356.356 0 00-.29-.39 5.1 5.1 0 01-2.61-1.64c-.62.31-1.3.51-1.99.59 0 0-.25.29.15.32 1.06-.02 2.05.51 2.63 1.4.15.22.42.42 1.13.42 0 0 0 .81-1.4.83 0 0 .85.62 1.41 1.11.23.2.34.08.51-.05.19-.15 1.22-.82 1.57.2 0 0-.6-.11-.83.05.32.3.49.74.46 1.18 0 0-.39-.51-.72-.38-.16.07.28.59-.29.83 0 0 .07-.72-.63-.7 0 0 .1.46-.49.55 0 0 .35-.9-.27-1.08-.17-.04-2.93-.37-3.3-1.52.25-.12.5-.22.76-.3 0 0-1.6-1.15-1.85-1.97 0 0-.33-.08-.2.1.12.17.44.39.27 2.01-.07.46.17.91.59 1.11-.69.19-1.43-.09-1.82-.69 0 0-.04 2.17 1.21 2.23.49.03 1.48.05 1.45 1.28 0 0-.5-.59-.87-.47 0 0 .35.42.2.79 0 0-.47-.59-.71-.49 0 0 .19.42.02.67 0 0-.4-.92-.63-.9-.22.03-.43.43-.39.85a.482.482 0 01-.32-.76c.15-.27.27-.23.37-.39.1-.15-3.18-1.35-2.76-3.75 0 0 .53.45.91.09.32-.29.15-1.07-.54-1.64 0 0 .61-.23.86-.32.2-.07.09-.35.19-.57-.51.04-1-.13-1.38-.47-.31-.38-.4-.9-.24-1.37.29-.75.71-1.44 1.22-2.05.14-.2.28-.37.37-.52.27-.39.61-1.17.37-1.57a.69.69 0 00-.6-.31c-.12 0-.24.01-.35.03.24.5-.17 1.21-.77 1.58-.94.58-.79 1.27-.79 1.27-.19-.8-.24-1.63-.12-2.44.19-.75.82-1.58 1.52-.91 0 0 .34-.03.47-.03.43-.02.84.2 1.07.56.48.81-.35 2.05-.39 2.1-.1.15-.24.33-.38.53-.47.56-.86 1.19-1.14 1.87-.1.42-.09.77.13.93.35.24.77.35 1.19.29.68-.6 1.44-1.1 2.27-1.47.39-.13.44-.52.15-.46-.25.05-1.46.23-1.86-.49 0 0 1.36-.38 1.43-1.1-.37.27-.87.3-1.28.08 0 0 1.12-.81.89-1.52-.08-.24-.3-1.12 0-1.33.12-.08-.27-.39-.5-.37.29-.29.76-.3 1.06-.01.06.06.23.04.34.01.3-.12.61-.2.93-.25.34 0 .51-.17.89.32.2.11.4.2.61.28.14.05.1.24.08.53-.01.14-.08.08-.87.22-.21.04-.52.88-.39.91.14.03.94-.3 1.1-.23.16.13.19.37.07.54-.08.13-.31.02-.53.07-.29.07-.64.38-.14.81.29.24 1.26.64 2.1-.96.2.35.27.76.2 1.15l2.14-1.76s-.2-1.18.69-1.62c0 0-.29.5-.17.77.27-.23.59-.38.93-.43 0 0-.59.68-.56.8 0 0 .81-.23 1-.06 0 0-.84.37-.84.59 0 .2.59.25.86.17 0 0-.12.59-1.11.49-.61.83-1.36 1.56-2.22 2.14-.35.22.06.71.81.46.25-.09.47-.26.64-.46 0 0 .69 1.47-1.65 1.54.56.55 1.1 1.13 1.6 1.74.2.28.32.03.4-.11m-5.55-7.16c-.02.12.07.22.18.24.12.02.22-.07.24-.18v-.06c0-.04-.01-.09-.03-.13l.16.01c.06 0 .1-.06.1-.11a.12.12 0 00-.12-.1l-.75.03c-.06.01-.1.02-.1.08s.05.06.11.06l.25.01c-.02.05-.04.1-.04.15m1.5.89s1.83.27 1.95-.73c.06-.48-.25-.64-.51-.6-.23.04-.44.23-.22.57.11.17.34.53-1.22.76m-1.07 24.49-3.82.59 4-1.1zm23.72-4.48c-1.06-.77-1.98-1.73-2.69-2.84-2.03-3.23-2.32-5.94-2.3-13.34 0-.3.01-.58.01-.86l-1.09-.11s-.24 7.77-.24 8.63c0 1.17.33 2.26.51.07.09-1.09-.17-4.6.13-4.6.41 0 .5 13.22.06 13.22-.81-.1-1.63-.14-2.44-.15-.53-.41-1.23-.55-1.88-.38.27.2.58.36.9.47l-14.12 3.63-.86-.51-5.8 2.41 6.43-.62.35-.97 14.36-3.79c.63.27 1.26.54 1.29.57.17.16 1.96-.13 1.91.57-.03.37-.52.67-1.04.88-.49.2-1.19.02-1.16.13.52.23 1.1.28 1.65.14.99-.33 1.9-.84 2.69-1.52 0 0 3.09-.22 3.51-.85q-.105-.09-.18-.18M31.03 27.86c-.76.81-1.1 1.92-.91 3.02.07 2.05 1.09 2.26 1.95 1.19.67-.83.94-1.74.79-1.69-.46.15-1.3.21-1.66-.25-.38-.68-.35-1.5.07-2.15zm13.18 3.79c.31-.12.65-.18.99-.18.31-.01.61.14.79.39l.19.56s.56.28.77-.01c.18-.25.08-.5-.15-.78a1.44 1.44 0 00-1.37-.59c-.46.02-.9.18-1.26.47zm-.12 6.02c.01-.04.83-.25.84-.3.06-.32.28-.58.58-.71.13-.04.21-.15.23-.28.08-.35-.03-.72-.3-.97-.57-.77-.95-1.68-1.09-2.63-.06-.16-.14.03-.14.03s.54 2.66-.42 2.77c.08.75-.44 1.44-1.18 1.57-.14.03-.23.11-.23.22-.03.25-.1.49-.23.71.66-.15 1.34-.24 2.02-.27-.02-.06-.05-.1-.08-.14m-4.99-.54c-1.72-.21-1.91-1.34-1.92-1.83-.01-.4.41-.22-.31-.6a2.87 2.87 0 00-2.49-.21l.18.18c.59-.05 1.18.13 1.65.49-.21 3.01 1.84 2.81 1.84 2.81.3.48.81.78 1.37.82.17-.06.38-.12.64-.2-.56-.27-.93-.83-.96-1.46m-1.15-21.84c.7-.44 1.5-.68 2.33-.7.44-.06.87.21 1 .63.3-.31.12-1.11-.91-1.09-.95-.02-1.85.41-2.42 1.16m1.7.08c-.42.02-.84.13-1.21.33-.05.06-.05.14.01.19s.15.04.2-.01c0-.01-.04.02.07-.06v.07c.02.14.14.24.28.23.14-.02.24-.14.23-.28a.25.25 0 00-.12-.19q.27-.075.54-.09c.08 0 .14-.03.14-.11s-.06-.09-.14-.08m-1.66 1.76c-.13.01-.23.15-.11.23.08.06.08-.13.24-.04.08.04.17.03.24-.02.06-.06.16-.08.24-.05.09.03.17-.2-.03-.21a.35.35 0 00-.26.07c-.1.08-.08.04-.17.03-.04-.01-.1-.01-.15-.01m-.13.84c.14.19.37.28.6.23.24-.07.44-.25.55-.47-.16-.01-.33 0-.49.03-.13.02-.12.15-.27.1-.16-.06-.23.01-.39.11m40.59 27.28C78.45 20.3 60.85 0 39.22 0S0 20.3 0 45.25s17.59 45.26 39.22 45.26 39.23-20.3 39.23-45.26m-.58 0c0 24.64-17.34 44.68-38.65 44.68S.58 69.89.58 45.25C.58 20.62 17.92.57 39.23.57s38.64 20.05 38.64 44.68M20.32 23.82l-.25 1.97c.2-.06.4-.09.6-.1.44-.02.81.31.83.75v.13c0 .48-.17.71-.43.71s-.61-.32-.75-.43c-.07-.05-.17-.05-.23.01a.5.5 0 00-.22.31c-.03.1 0 .2.08.27.24.15.52.23.81.23.38-.02.74-.15 1.05-.37.37-.24.6-.64.61-1.08a1.12 1.12 0 00-1.19-1.05c-.02 0-.05 0-.07.01-.24.01-.48.07-.69.17l.13-.81h1.55l.12-.7zm38.81 0-.25 1.97c.2-.06.4-.09.6-.1.44-.02.81.32.83.75v.13c0 .48-.17.71-.44.71-.26 0-.61-.32-.75-.43-.07-.05-.17-.05-.23.01a.5.5 0 00-.22.31c-.03.1 0 .2.08.27.24.15.52.23.81.23.38-.02.74-.15 1.05-.37.37-.24.6-.64.61-1.08a1.12 1.12 0 00-1.19-1.05c-.02 0-.05 0-.07.01-.24.01-.48.07-.69.17l.12-.81h1.55l.12-.7zm-3.32 0c-.04.26-.07.56-.15 1.1h.27c.13-.34.16-.37.56-.37h1.25c-.54.99-1.17 2.01-1.83 3.01l.05.09.87-.07c.51-1.22 1.06-2.48 1.67-3.68l-.07-.08zm-38.5.24c.45-.08 1.01-.18 1.49-.31v3.14c0 .39.01.41.48.46v.23h-1.92v-.23c.47-.05.49-.07.49-.46v-2.3c0-.25-.02-.29-.22-.3l-.32-.02z" style="fill:#001158"/></svg>